<?xml version="1.0" encoding="UTF-8"?>
<svg id="Calque_1" data-name="Calque 1" xmlns="http://www.w3.org/2000/svg" version="1.1" viewBox="0 0 595.3 841.9">
  <defs>
    <style>
      .cls-1 {
        fill: #1d1d1b;
        stroke-width: 0px;
      }
    </style>
  </defs>
  <path class="cls-1" d="M46.3,462.6c1.9-13.3,3.8-26.8,6-40.3,2.1-13.5,4.3-26.5,6.6-39.1,2.3-12.6,4.4-23.9,6.5-34.1,2.2-11,4.4-22.1,6.6-33.4,2.2-11.3,4.5-22.7,6.8-34.2l44.3-5.8-13.2,57.2c-2.4,10-4.8,20.6-7.2,32-2.4,11.4-4.7,22.4-6.7,33-2,10.6-3.6,20.1-4.8,28.4,4.2-.3,8.7-.5,13.5-.6,4.8,0,9.1-.1,12.8-.1.2,3.9.5,8,1,12.3.5,4.3,1.1,8,1.6,11.1.6,3.1.9,4.9.9,5.2h-1.9c-.6,0-1.2,0-1.9-.3h-4.1c-6.6,0-13.9.3-21.9.9-8,.6-16,1.5-23.8,2.8-7.8,1.3-14.9,2.9-21.1,4.9Z"/>
  <path class="cls-1" d="M118.2,461.8c2.9-10,5.7-21.3,8.5-33.9,2.8-12.7,5.5-25.6,8.1-38.9,2.6-13.2,5.1-25.8,7.5-37.6,2.2-10.8,4.3-21.8,6.3-32.9,2-11.1,4.1-22.4,6.1-33.7l39.5-6.3c-2.2,11.3-4.4,22.5-6.6,33.5-2.2,11.1-4.4,22.1-6.6,33-2.4,11.8-4.8,24.3-7.3,37.5-2.5,13.2-5,26.1-7.3,38.9-2.4,12.7-4.6,24.6-6.6,35.6-3,0-6.8.2-11.4.6-4.6.4-9.1.9-13.7,1.5-4.6.6-8.4,1.1-11.5,1.6-3.1.5-4.8.8-4.9,1Z"/>
  <path class="cls-1" d="M171.4,462.3c2.4-8.1,4.6-17.3,6.8-27.7,2.2-10.4,4.3-21,6.2-31.8,1.9-10.8,3.8-20.8,5.4-30.1,1.7-9.3,3-17,4.1-23,1.9-11.3,3.7-22.7,5.4-34.3,1.8-11.6,3.5-23.3,5.2-35.3l84.8-4.3-7.3,31.1h-39.7l-7.8,45.1c2.7-.2,5.3-.3,7.7-.3h24.4c1.5,0,2.9,0,4.1-.3-.2,2.4-.4,4.7-.8,7-.3,2.3-.7,4.6-1,7l-2.3,13.7c-3.5,0-8.7-.1-15.3-.4-6.7-.3-13.7-.5-21.1-.6l-11.6,74.7c-2.9.5-5.7,1-8.5,1.5s-5.6,1.1-8.5,1.8c-4.7.8-9.9,1.9-15.4,3-5.6,1.2-10.5,2.3-14.7,3.3Z"/>
  <path class="cls-1" d="M258.7,462.3l33.2-180,80-6.8c-1.2,3.7-2.2,7.5-3,11.4-.8,3.2-1.6,6.5-2.4,10-.8,3.5-1.4,6.5-1.9,9.2-2.2.2-5.3.3-9.4.4-4.1,0-8.2.2-12.4.3-4.2,0-7.8.1-10.9.1h-4.8l-8.9,45.3,14.7-.8c1.9-.2,3.8-.3,5.7-.3h10.8c1.5,0,2.7,0,3.5-.3-.3,2.4-.6,4.7-.9,7-.3,2.3-.5,4.6-.9,7l-2.3,13.9c-.8.2-1.9.3-3.3.3h-4.8c-1.9.2-3.8.3-5.8.3s-4,0-5.8.3c-2.2.2-4.5.3-6.8.3s-4.9,0-7.6.3l-8.6,46.6,37-5.8-2.5,28.9-81.8,12.7Z"/>
  <path class="cls-1" d="M344,462.3l13.2-65.8c2-12.2,4.2-24.6,6.6-37.5,2.4-12.8,4.6-25.5,6.7-38,2.1-12.5,3.8-24.2,4.9-35.2,9.6-3,20-5.3,31.1-6.7,11.1-1.4,22.2-2.2,33.2-2.2s21.6,2.8,26.2,8.4c4.6,5.6,7,13.1,7,22.5s-2,17.3-6.1,26c-4.1,8.7-9.3,16.5-15.8,23.5-6.5,7-13.6,12.5-21.4,16.6,3,6.8,6.3,14.1,9.7,22.2,3.5,8,6.7,15.7,9.7,22.9,1.7,4.2,3.4,8.4,5.2,12.7,1.8,4.2,3.5,8.4,5.2,12.7l-39.2,13.7c-1.7-5.9-3.3-11.6-4.8-17-1.5-5.4-3-10.7-4.3-16-1.7-6.2-3.3-12.3-4.8-18.1-1.5-5.8-2.8-11-3.9-15.6-1.1-4.6-1.7-7.8-1.9-9.6l-3.3,1c-1,5.4-2.2,12-3.7,19.7-1.4,7.8-2.7,15.3-3.9,22.5l-4.6,26.6-41,10.6ZM403.5,352.4c3-.3,6.8-1.6,11.3-3.9,4.5-2.3,8.9-5.1,13.4-8.5,4.5-3.4,8.2-6.8,11.3-10.4,3-3.5,4.6-6.7,4.6-9.4s-2-5.6-5.9-6.7c-4-1.1-9.2-1.6-15.6-1.6h-5.6c-1,.2-1.9.3-2.8.3h-2.5l-8.1,40.3Z"/>
  <path class="cls-1" d="M496.2,462.6c-6.8,0-13.5-1.8-20.3-5.4-6.8-3.6-13.3-9.4-19.5-17.3l18.7-36.7c1.9,3.2,4.6,6.2,8.2,9.1,3.6,2.9,7.5,5.2,11.5,6.8,4.1,1.7,7.5,2.5,10.4,2.5,4.4,0,8.6-1.3,12.5-4.1,4-2.7,6-6.3,6-10.9s-2.7-11.3-8.1-16.2c-5.4-4.9-11.5-9.7-18.2-14.4-6.6-4.7-12.6-10.1-18.1-16.1-5.5-6-8.2-12.9-8.2-20.6s2.5-16.9,7.6-24.4c5.1-7.5,11.6-14.1,19.7-19.7,8.1-5.7,16.7-10,25.9-13.2,9.2-3.1,17.9-4.7,26.2-4.7s11.4,1,16.5,2.9c5.1,1.9,9.1,5.1,12.2,9.5,3,4.4,4.6,10.3,4.6,17.7s0,2.4-.1,3.5c0,1.2-.2,2.4-.4,3.5-.2,1.2-.4,2.4-.6,3.7-.3,1.3-.5,2.6-.6,3.9l-36.7,10.6c.3-1.3.6-2.7.9-4.1.3-1.3.4-2.7.4-4.1,0-5.1-.9-8.7-2.7-11s-4.1-3.4-7-3.4-3.7.8-6.6,2.4c-2.9,1.6-5.4,3.8-7.7,6.6-2.3,2.8-3.4,5.9-3.4,9.2,0,5.6,2.3,10.2,7,13.8,4.6,3.6,10,7.3,16.1,11,2.9,1.7,6.1,4.3,9.6,8,3.5,3.6,6.6,8.5,9.2,14.7,2.6,6.2,3.9,14.1,3.9,23.7s-3.1,23.5-9.2,32.9c-6.2,9.5-14.5,16.8-24.9,22.2-10.5,5.3-22,8-34.7,8Z"/>
</svg>